<svg width="387" height="324" viewBox="0 0 387 324" fill="none" xmlns="http://www.w3.org/2000/svg">
<path d="M297.397 9.12878L384.791 94.3193C371.489 107.302 354.965 111.536 338.834 111.793L338.833 111.793C327.011 111.984 317.365 115.749 310.699 122.581C304.033 129.413 300.508 139.149 300.608 150.973L300.608 150.973C300.754 167.538 296.717 184.62 283.24 198.434C269.762 212.249 252.785 216.706 236.222 216.969L236.221 216.969C224.399 217.16 214.753 220.925 208.087 227.758C201.421 234.59 197.896 244.326 197.996 256.149L197.996 256.15C198.142 272.715 194.105 289.796 180.628 303.611C167.001 317.578 150.033 322.022 133.525 322.222C117.216 322.419 101.48 318.472 90.051 315.534L2.13471 229.833C15.4361 216.851 31.9599 212.616 48.0916 212.36L48.0921 212.36C59.9146 212.169 69.5605 208.404 76.2262 201.571C82.8919 194.739 86.4176 185.003 86.3172 173.18L86.3172 173.179C86.1715 156.614 90.2081 139.533 103.686 125.718C117.163 111.904 134.14 107.447 150.704 107.184L150.704 107.184C162.527 106.992 172.173 103.227 178.838 96.395C185.504 89.5627 189.03 79.8268 188.929 68.0032L188.929 68.0027C188.784 51.4377 192.82 34.3561 206.298 20.5417C219.955 6.54275 236.996 2.20881 253.576 2.13094C269.912 2.05419 285.665 6.10893 297.097 9.05155L297.397 9.12878Z" fill="#D604C1" stroke="#D604C1" stroke-width="3"/>
</svg>
