<svg width="386" height="369" viewBox="0 0 386 369" fill="none" xmlns="http://www.w3.org/2000/svg">
<path d="M382.719 255.652C383.037 257.91 383.366 260.088 383.813 262.139L309.706 367.056C294.382 355.955 282.519 342.211 274.42 326.187L274.42 326.186C268.856 315.185 265.999 305.111 264.007 297.012C263.869 296.444 263.529 295.945 263.052 295.608C262.573 295.269 261.987 295.116 261.404 295.176C253.109 296.005 242.658 296.671 230.433 295.099L230.432 295.099C212.154 292.753 194.817 285.87 178.898 274.62C162.98 263.37 150.705 249.325 142.393 232.877L142.393 232.877C136.832 221.878 133.971 211.802 131.984 203.705L131.982 203.698C131.84 203.134 131.502 202.639 131.026 202.303C130.551 201.967 129.971 201.813 129.392 201.868L129.386 201.869C121.086 202.695 110.636 203.364 98.412 201.794C80.1297 199.446 62.7929 192.564 46.8742 181.313C30.9557 170.063 18.6843 156.021 10.3687 139.571C5.64868 130.229 4.39176 122.145 3.27586 114.968C2.8701 112.358 2.48299 109.868 1.95482 107.482L76.3908 2.09872C91.7152 13.199 103.578 26.9433 111.677 42.9678C117.234 53.9695 120.098 64.0408 122.085 72.1362C122.223 72.7056 122.563 73.2058 123.042 73.544C123.52 73.8823 124.105 74.0356 124.688 73.9757C132.983 73.147 143.432 72.4847 155.658 74.0508C173.94 76.3986 191.273 83.279 207.192 94.5293C223.11 105.78 235.385 119.824 243.701 136.274C249.258 147.276 252.118 157.344 254.109 165.442C254.247 166.012 254.587 166.512 255.066 166.851C255.544 167.188 256.127 167.342 256.709 167.283C265.004 166.454 275.457 165.788 287.682 167.358C305.964 169.705 323.301 176.588 339.22 187.839C355.138 199.089 367.41 213.131 375.725 229.582L375.726 229.582C379.001 236.052 380.544 242.116 381.523 247.676C381.928 249.977 382.234 252.178 382.53 254.303C382.593 254.756 382.656 255.205 382.719 255.652ZM310.171 367.391C310.173 367.392 310.174 367.393 310.175 367.394L310.172 367.392C310.172 367.391 310.172 367.391 310.171 367.391ZM309.841 367.858L309.839 367.856L309.841 367.858Z" fill="#D604C1" stroke="#D604C1" stroke-width="3"/>
</svg>
