<svg width="412" height="313" viewBox="0 0 412 313" fill="none" xmlns="http://www.w3.org/2000/svg">
<path d="M321.501 23.6331L409.516 76.5113L365.529 149.698L320.839 150.481L320.008 150.496L319.58 151.208L296.554 189.521L251.864 190.304L251.033 190.318L250.605 191.031L227.579 229.343L182.889 230.127L182.058 230.141L181.63 230.854L158.609 269.168L113.919 269.951L113.088 269.965L112.66 270.678L89.6337 308.99L4.26029 310.486L2.47407 207.451L2.47413 207.451L2.47377 207.437L1.80939 182.31L1.74005 165.573L4.76743 160.536L4.76748 160.536L27.7904 122.225L72.4798 121.442L73.311 121.428L73.7392 120.715L96.7622 82.4044L141.452 81.6213L142.283 81.6067L142.711 80.8942L165.737 42.5816L210.427 41.7985L211.258 41.7839L211.686 41.0714L234.709 2.76079L279.057 1.98505L321.205 23.4859L321.493 23.6327L321.501 23.6331Z" fill="#D604C1" stroke="#D604C1" stroke-width="3"/>
</svg>
