<svg width="326" height="326" viewBox="0 0 326 326" fill="none" xmlns="http://www.w3.org/2000/svg">
<path d="M174.919 80.6076L244.758 21.1469L228.143 111.336L227.842 112.97L229.499 113.103L320.951 120.434L245.409 172.477L244.04 173.42L245.118 174.685L304.609 244.515L214.389 227.909L212.755 227.608L212.622 229.265L205.322 320.708L153.247 245.174L152.304 243.806L151.04 244.884L81.2407 304.366L97.8162 214.154L98.1164 212.52L96.4604 212.388L5.04771 205.08L80.5514 153.013L81.9188 152.07L80.8418 150.806L21.3894 80.9982L111.571 97.5818L113.204 97.8822L113.337 96.2266L120.676 4.80517L172.712 80.3167L173.654 81.6846L174.919 80.6076Z" fill="#3DDC97" stroke="#3DDC97" stroke-width="3"/>
</svg>
