<svg width="330" height="328" viewBox="0 0 330 328" fill="none" xmlns="http://www.w3.org/2000/svg">
<path d="M183.468 85.5898L229.421 21.2045L212.293 98.4141L211.546 101.781L214.518 100.032L282.7 59.8955L235.635 123.465L233.582 126.238L237.011 125.848L315.629 116.898L246.762 155.841L243.758 157.54L247.05 158.577L322.513 182.357L243.749 189.937L240.313 190.267L242.899 192.554L302.163 244.957L227.123 219.866L223.851 218.772L225.282 221.911L258.097 293.871L199.755 240.445L197.212 238.116L197.242 241.564L197.929 320.646L166.374 248.12L164.998 244.959L163.623 248.12L132.068 320.645L132.758 241.564L132.788 238.116L130.245 240.445L71.9033 293.871L104.718 221.911L106.149 218.772L102.877 219.866L27.8371 244.958L87.0979 192.553L89.6832 190.267L86.2479 189.937L7.48662 182.357L82.95 158.577L86.2421 157.54L83.2375 155.841L14.3685 116.898L92.9894 125.848L96.4179 126.238L94.3646 123.465L47.2971 59.8958L115.478 100.032L118.451 101.781L117.704 98.4141L100.578 21.2039L146.532 85.5898L148.535 88.3962L149.223 85.0176L164.999 7.5192L180.777 85.0177L181.465 88.3961L183.468 85.5898Z" fill="#3DDC97" stroke="#3DDC97" stroke-width="3"/>
</svg>
