<svg width="344" height="344" viewBox="0 0 344 344" fill="none" xmlns="http://www.w3.org/2000/svg">
<path d="M204.907 24.7347L204.907 24.7351L217.322 59.6401L217.878 61.2054L219.379 60.4922L252.839 44.5886L252.839 44.5885C282.538 30.469 313.538 61.4517 299.397 91.1456L299.397 91.1466L283.493 124.607L282.78 126.107L284.345 126.664L319.25 139.079L319.753 137.665L319.251 139.079C350.23 150.093 350.23 193.907 319.251 204.921L319.753 206.335L319.25 204.921L284.345 217.336L282.78 217.893L283.493 219.393L299.397 252.853L300.752 252.21L299.397 252.854C313.515 282.55 282.536 313.526 252.839 299.411L219.379 283.508L217.878 282.795L217.322 284.36L204.907 319.265L206.32 319.768L204.907 319.265C193.893 350.245 150.083 350.245 139.064 319.265L126.664 284.36L126.108 282.794L124.607 283.508L91.1466 299.411L91.7905 300.766L91.1466 299.412C61.4548 313.525 30.4747 282.55 44.5886 252.853L60.4922 219.393L61.2054 217.893L59.6401 217.336L24.7351 204.921L24.7349 204.921C-6.24498 193.907 -6.24498 150.093 24.7349 139.079L24.7351 139.079L59.6401 126.664L61.2054 126.107L60.4922 124.607L44.5886 91.1466C30.4735 61.4476 61.4568 30.4479 91.1455 44.5881L91.1466 44.5886L124.607 60.4922L126.107 61.2054L126.664 59.6401L139.078 24.7351L139.079 24.7346C150.083 -6.24457 193.898 -6.2452 204.907 24.7347ZM137.665 24.2325C149.142 -8.07749 194.838 -8.07749 206.32 24.2325L218.23 57.7168L218.091 57.7827L218.735 59.1375L220.148 58.6348L220.097 58.4902L252.195 43.2338L137.665 24.2325Z" fill="#F992D3" stroke="#F992D3" stroke-width="3"/>
</svg>
