<svg width="345" height="345" viewBox="0 0 345 345" fill="none" xmlns="http://www.w3.org/2000/svg">
<path d="M204.384 24.023L204.385 24.0239C206.113 28.8799 208.842 33.3192 212.393 37.0553C215.944 40.7914 220.24 43.741 225.002 45.7138C229.764 47.6866 234.887 48.6386 240.04 48.5083C245.193 48.378 250.261 47.1684 254.918 44.9576L254.918 44.9573C283.689 31.2841 313.701 61.2962 300.028 90.0674L300.028 90.0679C297.817 94.7243 296.608 99.7927 296.477 104.946C296.347 110.099 297.299 115.222 299.272 119.984C301.245 124.746 304.194 129.041 307.93 132.593C311.666 136.144 316.106 138.872 320.962 140.601L320.962 140.601C350.979 151.273 350.979 193.722 320.962 204.394L320.962 204.394C316.106 206.123 311.666 208.851 307.93 212.403C304.194 215.954 301.245 220.249 299.272 225.011C297.299 229.774 296.347 234.897 296.477 240.05C296.608 245.203 297.817 250.271 300.028 254.927L300.028 254.928C313.702 283.699 283.689 313.711 254.918 300.033L254.918 300.033C250.261 297.822 245.192 296.613 240.039 296.483C234.886 296.353 229.763 297.305 225 299.278C220.238 301.252 215.943 304.202 212.392 307.939C208.841 311.675 206.113 316.115 204.385 320.972L204.384 320.972C193.712 350.989 151.264 350.989 140.592 320.972L139.194 321.469L140.592 320.972C138.864 316.115 136.136 311.674 132.585 307.937C129.034 304.2 124.739 301.25 119.976 299.276C115.214 297.303 110.091 296.351 104.937 296.481C99.7836 296.611 94.7148 297.821 90.0582 300.033L90.0577 300.033C61.2862 313.711 31.2701 283.699 44.9477 254.928L44.9479 254.927C47.1595 250.271 48.3694 245.202 48.4998 240.049C48.6301 234.895 47.6778 229.772 45.7045 225.009C43.7311 220.247 40.7806 215.951 37.0435 212.4C33.3065 208.849 28.8661 206.122 24.0091 204.394L24.0089 204.394C-6.00298 193.722 -6.00298 151.273 24.0089 140.601L24.0091 140.601C28.8661 138.873 33.3065 136.146 37.0435 132.595C40.7806 129.044 43.7311 124.748 45.7045 119.986C47.6778 115.224 48.6301 110.1 48.4998 104.947C48.3694 99.7932 47.1595 94.7244 44.9479 90.0678L44.9477 90.0673C31.2701 61.2966 61.2862 31.2839 90.0579 44.9573L90.0579 44.9574C94.7141 47.1698 99.7827 48.3808 104.936 48.5118C110.09 48.6429 115.213 47.6911 119.976 45.7181C124.739 43.7452 129.034 40.7949 132.585 37.058C136.136 33.321 138.864 28.8805 140.592 24.0235L140.592 24.023C151.264 -6.00768 193.712 -6.00768 204.384 24.023Z" fill="#F992D3" stroke="#F992D3" stroke-width="3"/>
</svg>
