<svg width="336" height="336" viewBox="0 0 336 336" fill="none" xmlns="http://www.w3.org/2000/svg">
<path d="M317.219 217.125L316.794 217.561V218.171V218.267V218.315L316.797 218.363C319.148 255.366 295.449 288.774 260.567 297.9L260.408 297.942L260.261 298.018L260.167 298.066L259.794 298.258L259.575 298.615C240.318 330.003 202.065 342.757 168.57 328.998L168 328.764L167.43 328.998C133.935 342.757 95.6819 330.003 76.4253 298.615L76.2058 298.258L75.8325 298.066L75.7385 298.017L75.592 297.942L75.4325 297.9C40.5508 288.774 16.852 255.366 19.2034 218.363L19.2065 218.315V218.267V218.171V217.561L18.7815 217.125L18.7359 217.078C-4.24579 188.592 -4.24469 147.359 18.7355 118.923L18.7815 118.875L19.2065 118.439V117.829V117.733V117.685L19.2034 117.638C16.852 80.6336 40.5508 47.2265 75.4325 38.0996L75.5919 38.0579L75.7384 37.9826L75.8323 37.9344L76.2058 37.7425L76.4253 37.3846C95.6819 5.99731 133.935 -6.7567 167.43 7.00192L168 7.23603L168.57 7.00192C202.065 -6.7567 240.318 5.99731 259.575 37.3846L259.794 37.7424L260.168 37.9343L260.261 37.9825L260.408 38.0579L260.567 38.0996C295.449 47.2265 319.148 80.6336 316.797 117.638L316.794 117.685V117.733V117.829V118.439L317.219 118.875L317.265 118.923C340.245 147.359 340.246 188.592 317.264 217.078L317.219 217.125Z" fill="#F992D3" stroke="#F992D3" stroke-width="3"/>
</svg>
