<?xml version="1.0" encoding="utf-8"?>
<!-- Generator: Adobe Illustrator 28.0.0, SVG Export Plug-In . SVG Version: 6.00 Build 0)  -->
<svg version="1.1" id="Layer_1" xmlns="http://www.w3.org/2000/svg" xmlns:xlink="http://www.w3.org/1999/xlink" x="0px" y="0px"
	 viewBox="0 0 344 344" style="enable-background:new 0 0 344 344;" xml:space="preserve">
<style type="text/css">
	.st0{fill:#F992D3;stroke:#F992D3;stroke-width:3;}
</style>
<path class="st0" d="M204.9,24.7L204.9,24.7l12.4,34.9l0.6,1.6l1.5-0.7l33.5-15.9v0c29.7-14.1,60.7,16.9,46.6,46.6v0l-15.9,33.5
	l-0.7,1.5l1.6,0.6l34.9,12.4l0.5-1.4l-0.5,1.4c31,11,31,54.8,0,65.8l0.5,1.4l-0.5-1.4l-34.9,12.4l-1.6,0.6l0.7,1.5l15.9,33.5
	l1.4-0.6l-1.4,0.6c14.1,29.7-16.9,60.7-46.6,46.6l-33.5-15.9l-1.5-0.7l-0.6,1.6l-12.4,34.9l1.4,0.5l-1.4-0.5c-11,31-54.8,31-65.8,0
	l-12.4-34.9l-0.6-1.6l-1.5,0.7l-33.5,15.9l0.6,1.4l-0.6-1.4c-29.7,14.1-60.7-16.9-46.6-46.6l15.9-33.5l0.7-1.5l-1.6-0.6l-34.9-12.4
	h0c-31-11-31-54.8,0-65.8h0l34.9-12.4l1.6-0.6l-0.7-1.5L44.6,91.1C30.5,61.4,61.5,30.4,91.1,44.6l0,0l33.5,15.9l1.5,0.7l0.6-1.6
	l12.4-34.9l0,0C150.1-6.2,193.9-6.2,204.9,24.7z"/>
</svg>
