<svg width="403" height="403" viewBox="0 0 403 403" fill="none" xmlns="http://www.w3.org/2000/svg">
<mask id="path-1-inside-1_1723_318" fill="white">
<path fill-rule="evenodd" clip-rule="evenodd" d="M309.317 97.4942C320.357 56.2922 295.906 13.9416 254.704 2.90158C213.502 -8.13846 171.152 16.3126 160.112 57.5146L146.879 106.9L97.494 93.6669C56.292 82.6269 13.9414 107.078 2.90139 148.28C-8.13868 189.482 16.3124 231.833 57.5144 242.873L106.9 256.105L93.6668 305.49C82.6268 346.692 107.078 389.043 148.28 400.083C189.482 411.123 231.832 386.672 242.873 345.47L256.105 296.085L305.49 309.317C346.692 320.358 389.043 295.906 400.083 254.704C411.123 213.502 386.672 171.152 345.47 160.112L296.085 146.879L309.317 97.4942Z"/>
</mask>
<path fill-rule="evenodd" clip-rule="evenodd" d="M309.317 97.4942C320.357 56.2922 295.906 13.9416 254.704 2.90158C213.502 -8.13846 171.152 16.3126 160.112 57.5146L146.879 106.9L97.494 93.6669C56.292 82.6269 13.9414 107.078 2.90139 148.28C-8.13868 189.482 16.3124 231.833 57.5144 242.873L106.9 256.105L93.6668 305.49C82.6268 346.692 107.078 389.043 148.28 400.083C189.482 411.123 231.832 386.672 242.873 345.47L256.105 296.085L305.49 309.317C346.692 320.358 389.043 295.906 400.083 254.704C411.123 213.502 386.672 171.152 345.47 160.112L296.085 146.879L309.317 97.4942Z" fill="#9CEAEF"/>
<path d="M254.704 2.90158L255.481 0.00380676L254.704 2.90158ZM309.317 97.4942L312.215 98.2707L309.317 97.4942ZM160.112 57.5146L163.01 58.2911L160.112 57.5146ZM146.879 106.9L146.103 109.797L149 110.574L149.777 107.676L146.879 106.9ZM97.494 93.6669L98.2705 90.7691L97.494 93.6669ZM2.90139 148.28L5.79916 149.056L2.90139 148.28ZM57.5144 242.873L56.738 245.77L57.5144 242.873ZM106.9 256.105L109.797 256.882L110.574 253.984L107.676 253.208L106.9 256.105ZM93.6668 305.49L96.5646 306.267L93.6668 305.49ZM242.873 345.47L239.975 344.693L242.873 345.47ZM256.105 296.085L256.882 293.187L253.984 292.411L253.207 295.308L256.105 296.085ZM305.49 309.317L306.267 306.42L305.49 309.317ZM400.083 254.704L402.981 255.481L400.083 254.704ZM345.47 160.112L344.693 163.01L345.47 160.112ZM296.085 146.879L293.187 146.103L292.411 149L295.308 149.777L296.085 146.879ZM253.928 5.79936C293.53 16.4106 317.031 57.1161 306.42 96.7177L312.215 98.2707C323.684 55.4682 298.283 11.4727 255.481 0.00380676L253.928 5.79936ZM163.01 58.2911C173.621 18.6895 214.326 -4.81185 253.928 5.79936L255.481 0.00380676C212.678 -11.4651 168.683 13.9358 157.214 56.7382L163.01 58.2911ZM149.777 107.676L163.01 58.2911L157.214 56.7382L143.981 106.123L149.777 107.676ZM96.7176 96.5647L146.103 109.797L147.656 104.002L98.2705 90.7691L96.7176 96.5647ZM5.79916 149.056C16.4104 109.455 57.1159 85.9535 96.7176 96.5647L98.2705 90.7691C55.4681 79.3003 11.4725 104.701 0.0036257 147.504L5.79916 149.056ZM58.2909 239.975C18.6893 229.364 -4.81206 188.658 5.79916 149.056L0.0036257 147.504C-11.4653 190.306 13.9356 234.302 56.738 245.77L58.2909 239.975ZM107.676 253.208L58.2909 239.975L56.738 245.77L106.123 259.003L107.676 253.208ZM96.5646 306.267L109.797 256.882L104.002 255.329L90.7691 304.714L96.5646 306.267ZM149.056 397.185C109.455 386.574 85.9534 345.868 96.5646 306.267L90.7691 304.714C79.3001 347.516 104.701 391.512 147.503 402.981L149.056 397.185ZM239.975 344.693C229.364 384.295 188.658 407.796 149.056 397.185L147.503 402.981C190.306 414.45 234.301 389.049 245.77 346.246L239.975 344.693ZM253.207 295.308L239.975 344.693L245.77 346.246L259.003 296.861L253.207 295.308ZM306.267 306.42L256.882 293.187L255.329 298.983L304.714 312.215L306.267 306.42ZM397.185 253.928C386.574 293.53 345.868 317.031 306.267 306.42L304.714 312.215C347.516 323.684 391.512 298.283 402.981 255.481L397.185 253.928ZM344.693 163.01C384.295 173.621 407.796 214.326 397.185 253.928L402.981 255.481C414.449 212.678 389.049 168.683 346.246 157.214L344.693 163.01ZM295.308 149.777L344.693 163.01L346.246 157.214L296.861 143.981L295.308 149.777ZM306.42 96.7177L293.187 146.103L298.983 147.656L312.215 98.2707L306.42 96.7177Z" fill="#9CEAEF" mask="url(#path-1-inside-1_1723_318)"/>
</svg>
