<svg width="336" height="336" viewBox="0 0 336 336" fill="none" xmlns="http://www.w3.org/2000/svg">
<mask id="path-1-inside-1_1723_280" fill="white">
<path fill-rule="evenodd" clip-rule="evenodd" d="M131.848 22.6215C101.686 -7.54047 52.7835 -7.54047 22.6215 22.6215C-7.54041 52.7835 -7.54042 101.686 22.6215 131.848L58.7738 168L22.6215 204.152C-7.54049 234.314 -7.54049 283.217 22.6215 313.378C52.7834 343.54 101.686 343.54 131.848 313.379L168 277.226L204.152 313.378C234.314 343.54 283.217 343.54 313.378 313.378C343.54 283.217 343.54 234.314 313.379 204.152L277.226 168L313.378 131.848C343.54 101.686 343.54 52.7835 313.378 22.6215C283.216 -7.54046 234.314 -7.54047 204.152 22.6215L168 58.7738L131.848 22.6215Z"/>
</mask>
<path fill-rule="evenodd" clip-rule="evenodd" d="M131.848 22.6215C101.686 -7.54047 52.7835 -7.54047 22.6215 22.6215C-7.54041 52.7835 -7.54042 101.686 22.6215 131.848L58.7738 168L22.6215 204.152C-7.54049 234.314 -7.54049 283.217 22.6215 313.378C52.7834 343.54 101.686 343.54 131.848 313.379L168 277.226L204.152 313.378C234.314 343.54 283.217 343.54 313.378 313.378C343.54 283.217 343.54 234.314 313.379 204.152L277.226 168L313.378 131.848C343.54 101.686 343.54 52.7835 313.378 22.6215C283.216 -7.54046 234.314 -7.54047 204.152 22.6215L168 58.7738L131.848 22.6215Z" fill="#9CEAEF"/>
<path d="M22.6215 22.6215L20.5002 20.5002L22.6215 22.6215ZM131.848 22.6215L133.969 20.5002L131.848 22.6215ZM22.6215 131.848L24.7429 129.726L22.6215 131.848ZM58.7738 168L60.8952 170.121L63.0165 168L60.8952 165.879L58.7738 168ZM22.6215 204.152L20.5001 202.031L22.6215 204.152ZM22.6215 313.378L24.7428 311.257L22.6215 313.378ZM131.848 313.379L133.969 315.5L131.848 313.379ZM168 277.226L170.121 275.105L168 272.983L165.879 275.105L168 277.226ZM204.152 313.378L206.274 311.257L204.152 313.378ZM313.379 204.152L311.257 206.274L313.379 204.152ZM277.226 168L275.105 165.879L272.983 168L275.105 170.121L277.226 168ZM313.378 131.848L311.257 129.726L313.378 131.848ZM313.378 22.6215L315.5 20.5002L313.378 22.6215ZM204.152 22.6215L206.274 24.7428L204.152 22.6215ZM168 58.7738L165.879 60.8951L168 63.0164L170.121 60.8951L168 58.7738ZM24.7429 24.7428C53.7333 -4.24757 100.736 -4.24758 129.726 24.7428L133.969 20.5002C102.635 -10.8334 51.8338 -10.8334 20.5002 20.5002L24.7429 24.7428ZM24.7429 129.726C-4.24753 100.736 -4.24752 53.7332 24.7429 24.7428L20.5002 20.5002C-10.8333 51.8337 -10.8333 102.635 20.5002 133.969L24.7429 129.726ZM60.8952 165.879L24.7429 129.726L20.5002 133.969L56.6525 170.121L60.8952 165.879ZM24.7428 206.274L60.8952 170.121L56.6525 165.879L20.5001 202.031L24.7428 206.274ZM24.7428 311.257C-4.2476 282.267 -4.2476 235.264 24.7428 206.274L20.5001 202.031C-10.8334 233.365 -10.8334 284.166 20.5002 315.5L24.7428 311.257ZM129.726 311.257C100.736 340.248 53.7332 340.248 24.7428 311.257L20.5002 315.5C51.8337 346.833 102.635 346.833 133.969 315.5L129.726 311.257ZM165.879 275.105L129.726 311.257L133.969 315.5L170.121 279.347L165.879 275.105ZM206.274 311.257L170.121 275.105L165.879 279.347L202.031 315.5L206.274 311.257ZM311.257 311.257C282.267 340.248 235.264 340.248 206.274 311.257L202.031 315.5C233.365 346.833 284.166 346.833 315.5 315.5L311.257 311.257ZM311.257 206.274C340.248 235.264 340.248 282.267 311.257 311.257L315.5 315.5C346.833 284.166 346.833 233.365 315.5 202.031L311.257 206.274ZM275.105 170.121L311.257 206.274L315.5 202.031L279.347 165.879L275.105 170.121ZM311.257 129.726L275.105 165.879L279.347 170.121L315.5 133.969L311.257 129.726ZM311.257 24.7428C340.247 53.7332 340.247 100.736 311.257 129.726L315.5 133.969C346.833 102.635 346.833 51.8337 315.5 20.5002L311.257 24.7428ZM206.274 24.7428C235.264 -4.24758 282.267 -4.24757 311.257 24.7428L315.5 20.5002C284.166 -10.8334 233.364 -10.8334 202.031 20.5002L206.274 24.7428ZM170.121 60.8951L206.274 24.7428L202.031 20.5002L165.879 56.6525L170.121 60.8951ZM129.726 24.7428L165.879 60.8951L170.121 56.6525L133.969 20.5002L129.726 24.7428Z" fill="#9CEAEF" mask="url(#path-1-inside-1_1723_280)"/>
</svg>
