<svg width="412" height="412" viewBox="0 0 412 412" fill="none" xmlns="http://www.w3.org/2000/svg">
<mask id="path-1-inside-1_1723_295" fill="white">
<path fill-rule="evenodd" clip-rule="evenodd" d="M282.822 77.2262C282.822 34.5707 248.243 -0.00833673 205.588 -0.00833471C162.932 -0.00832931 128.353 34.5707 128.353 77.2262L128.353 128.353L77.2262 128.353C34.5707 128.353 -0.00835997 162.932 -0.00835626 205.588C-0.00837649 248.243 34.5707 282.822 77.2262 282.822L128.353 282.822L128.353 333.95C128.353 376.605 162.932 411.184 205.588 411.184C248.243 411.184 282.822 376.605 282.822 333.95L282.822 282.822L333.95 282.822C376.605 282.822 411.184 248.243 411.184 205.588C411.184 162.932 376.605 128.353 333.95 128.353L282.822 128.353L282.822 77.2262Z"/>
</mask>
<path fill-rule="evenodd" clip-rule="evenodd" d="M282.822 77.2262C282.822 34.5707 248.243 -0.00833673 205.588 -0.00833471C162.932 -0.00832931 128.353 34.5707 128.353 77.2262L128.353 128.353L77.2262 128.353C34.5707 128.353 -0.00835997 162.932 -0.00835626 205.588C-0.00837649 248.243 34.5707 282.822 77.2262 282.822L128.353 282.822L128.353 333.95C128.353 376.605 162.932 411.184 205.588 411.184C248.243 411.184 282.822 376.605 282.822 333.95L282.822 282.822L333.95 282.822C376.605 282.822 411.184 248.243 411.184 205.588C411.184 162.932 376.605 128.353 333.95 128.353L282.822 128.353L282.822 77.2262Z" fill="#9CEAEF"/>
<path d="M205.588 -0.00833471V-3.00834V-0.00833471ZM282.822 77.2262L285.822 77.2262L282.822 77.2262ZM128.353 77.2262L131.353 77.2262L128.353 77.2262ZM128.353 128.353L128.353 131.353H131.353V128.353L128.353 128.353ZM77.2262 128.353L77.2262 125.353L77.2262 128.353ZM-0.00835626 205.588L2.99163 205.588L-0.00835626 205.588ZM77.2262 282.822L77.2262 285.822L77.2262 282.822ZM128.353 282.822L131.353 282.822L131.353 279.822L128.353 279.822L128.353 282.822ZM128.353 333.95L131.353 333.95L128.353 333.95ZM282.822 333.95L279.822 333.95L282.822 333.95ZM282.822 282.822L282.822 279.822L279.822 279.822L279.822 282.822L282.822 282.822ZM333.95 282.822L333.95 279.822L333.95 282.822ZM411.184 205.588L414.184 205.588L411.184 205.588ZM333.95 128.353L333.95 131.353L333.95 128.353ZM282.822 128.353L279.822 128.353V131.353H282.822L282.822 128.353ZM205.588 2.99167C246.587 2.99166 279.822 36.2276 279.822 77.2262L285.822 77.2262C285.822 32.9139 249.9 -3.00834 205.588 -3.00834V2.99167ZM131.353 77.2262C131.353 36.2276 164.589 2.99167 205.588 2.99167V-3.00834C161.276 -3.00833 125.353 32.9139 125.353 77.2262L131.353 77.2262ZM131.353 128.353L131.353 77.2262L125.353 77.2262L125.353 128.353L131.353 128.353ZM77.2262 131.353L128.353 131.353L128.353 125.353H77.2262L77.2262 131.353ZM2.99163 205.588C2.99163 164.589 36.2276 131.353 77.2262 131.353L77.2262 125.353C32.9139 125.353 -3.00835 161.276 -3.00835 205.588L2.99163 205.588ZM77.2261 279.822C36.2276 279.822 2.99163 246.586 2.99163 205.588L-3.00835 205.588C-3.00839 249.9 32.9138 285.822 77.2262 285.822L77.2261 279.822ZM128.353 279.822L77.2261 279.822L77.2262 285.822L128.353 285.822L128.353 279.822ZM131.353 333.95L131.353 282.822L125.353 282.822L125.353 333.95L131.353 333.95ZM205.588 408.184C164.589 408.184 131.353 374.948 131.353 333.95L125.353 333.95C125.353 378.262 161.276 414.184 205.588 414.184V408.184ZM279.822 333.95C279.822 374.948 246.586 408.184 205.588 408.184V414.184C249.9 414.184 285.822 378.262 285.822 333.95L279.822 333.95ZM279.822 282.822L279.822 333.95L285.822 333.95L285.822 282.822L279.822 282.822ZM333.95 279.822L282.822 279.822L282.822 285.822L333.95 285.822L333.95 279.822ZM408.184 205.588C408.184 246.586 374.948 279.822 333.95 279.822L333.95 285.822C378.262 285.822 414.184 249.9 414.184 205.588L408.184 205.588ZM333.95 131.353C374.948 131.353 408.184 164.589 408.184 205.588L414.184 205.588C414.184 161.276 378.262 125.353 333.95 125.353L333.95 131.353ZM282.822 131.353L333.95 131.353L333.95 125.353L282.822 125.353L282.822 131.353ZM279.822 77.2262V128.353L285.822 128.353L285.822 77.2262L279.822 77.2262Z" fill="#9CEAEF" mask="url(#path-1-inside-1_1723_295)"/>
</svg>
