<svg width="258" height="258" viewBox="0 0 258 258" fill="none" xmlns="http://www.w3.org/2000/svg">
<g id="Group 62">
<path id="Vector" d="M154.747 18.1743L164.058 44.3531L189.154 32.4254C212.384 21.3819 236.635 45.6144 225.573 68.8429L213.645 93.938L239.825 103.249C264.058 111.864 264.058 146.136 239.825 154.751L213.645 164.062L225.573 189.157C236.617 212.386 212.384 236.614 189.154 225.575L164.058 213.647L154.747 239.826C146.131 264.058 111.862 264.058 103.242 239.826L93.9419 213.647L68.8458 225.575C45.6199 236.614 21.3865 212.386 32.4267 189.157L44.355 164.062L18.1751 154.751C-6.05837 146.136 -6.05837 111.864 18.1751 103.249L44.355 93.938L32.4267 68.8429C21.3865 45.6144 45.6199 21.3638 68.8458 32.4254L93.9419 44.3531L103.253 18.1743C111.861 -6.05812 146.135 -6.05812 154.747 18.1743Z" fill="#FF4522"/>
<ellipse id="Ellipse 5" cx="129" cy="123.5" rx="30" ry="30.5" fill="#F992D3"/>
</g>
</svg>
