<svg width="213" height="106" viewBox="0 0 213 106" fill="none" xmlns="http://www.w3.org/2000/svg">
<path id="Topete" d="M212.97 33.867L213 106C201.504 106 192.569 100.594 185.647 93.704C176.163 84.27 164.606 84.27 155.123 93.704C148.2 100.594 139.266 106 127.77 106C116.273 106 107.339 100.594 100.416 93.704C90.9329 84.27 79.3757 84.27 69.8921 93.704C62.9699 100.594 54.0352 106 42.539 106C19.3027 106 6.83064 84.376 0 72.451H0.0304939L0 0C11.4962 0 20.4309 5.406 27.353 12.296C36.8366 21.73 48.3938 21.73 57.8775 12.296C64.7996 5.406 73.7343 0 85.2305 0C96.7267 0 105.661 5.406 112.584 12.296C122.067 21.73 133.624 21.73 143.108 12.296C150.03 5.406 158.965 0 170.461 0C193.758 0 206.108 21.942 212.939 33.867H212.97Z" fill="#3DDC97"/>
</svg>
