<svg width="288" height="310" viewBox="0 0 287.177 309.675" fill="none" xmlns="http://www.w3.org/2000/svg">
<g id="Group 61">
<path id="Vector" d="M112.794 38.7739C112.938 36.8354 115.416 36.1197 116.44 37.7211L149.993 90.2258C150.643 91.2437 152.049 91.4046 152.962 90.5657L197.993 49.2223C199.402 47.9296 201.566 49.1032 201.244 50.9851L190.44 114.231C190.243 115.38 191.03 116.428 192.16 116.526L251.649 121.668C253.46 121.825 254.046 124.187 252.551 125.298L203.411 161.804C202.477 162.498 202.282 163.83 202.985 164.719L241.673 213.688C242.824 215.145 241.493 217.328 239.674 216.967L181.502 205.421C180.322 205.187 179.179 206.084 179.088 207.317L174.38 270.899C174.237 272.837 171.758 273.554 170.735 271.953L137.156 219.432C136.506 218.414 135.1 218.253 134.186 219.093L89.1817 260.45C87.7742 261.744 85.6096 260.571 85.9303 258.689L96.7097 195.425C96.9053 194.277 96.119 193.229 94.989 193.132L35.5256 188.005C33.7156 187.849 33.1284 185.488 34.6232 184.376L83.7388 147.853C84.6718 147.159 84.8664 145.828 84.1647 144.939L45.5013 95.9851C44.3508 94.5283 45.681 92.3457 47.4996 92.7063L105.647 104.237C106.827 104.471 107.97 103.574 108.062 102.342L112.794 38.7739Z" fill="#F992D3"/>
<g id="Group 21">
<path id="Ellipse 8" d="M128.25 155.273C127.007 155.273 125.989 156.282 126.101 157.52C126.533 162.336 128.348 166.859 131.272 170.315C134.648 174.304 139.226 176.546 144 176.546C148.774 176.546 153.352 174.304 156.728 170.315C159.652 166.859 161.467 162.336 161.899 157.52C162.011 156.282 160.993 155.273 159.75 155.273C158.507 155.273 157.514 156.284 157.366 157.518C156.957 160.919 155.626 164.097 153.546 166.554C151.014 169.546 147.58 171.227 144 171.227C140.42 171.227 136.986 169.546 134.454 166.554C132.374 164.097 131.043 160.919 130.634 157.518C130.486 156.284 129.493 155.273 128.25 155.273Z" fill="#400039"/>
<circle id="Ellipse 9" cx="115.892" cy="149.955" r="4.89202" fill="#400039"/>
<circle id="Ellipse 10" cx="172.108" cy="149.955" r="4.89202" fill="#400039"/>
</g>
</g>
</svg>
