<svg width="278" height="282" viewBox="0 0 278 282" fill="none" xmlns="http://www.w3.org/2000/svg">
<path d="M140.329 257.768L152.744 222.863L186.206 238.766C217.178 253.491 249.514 221.181 234.764 190.209L218.86 156.749L253.767 144.335C286.078 132.848 286.078 87.1521 253.767 75.6653L218.86 63.2506L234.764 29.7905C249.49 -1.18088 217.178 -33.486 186.206 -18.7663L152.744 -2.86258L140.329 -37.7676C128.842 -70.0775 83.1487 -70.0775 71.6566 -37.7676L59.2559 -2.86258L25.7944 -18.7663C-5.17342 -33.486 -37.4847 -1.18088 -22.7644 29.7905L-6.86006 63.2506L-41.7665 75.6653C-74.0778 87.1521 -74.0778 132.848 -41.7665 144.335L-6.86006 156.749L-22.7644 190.209C-37.4847 221.181 -5.17342 253.515 25.7944 238.766L59.2559 222.863L71.671 257.768C83.1486 290.077 128.847 290.077 140.329 257.768Z" fill="#FF4522"/>
<ellipse cx="39.0909" cy="40.7662" rx="39.0909" ry="40.7662" transform="matrix(1 0 0 -1 66.9092 151.325)" fill="#FAF7EF"/>
</svg>
