<svg width="122" height="122" viewBox="0 0 122 122" fill="none" xmlns="http://www.w3.org/2000/svg">
<path d="M73.1748 113.406L77.5779 101.027L89.445 106.667C100.429 111.889 111.897 100.43 106.666 89.4464L101.026 77.5797L113.406 73.1769C124.865 69.1031 124.865 52.8969 113.406 48.8231L101.026 44.4203L106.666 32.5536C111.889 21.5696 100.429 10.1125 89.445 15.3329L77.5779 20.9732L73.1748 8.59407C69.1008 -2.86469 52.8958 -2.86469 48.8201 8.59407L44.4221 20.9732L32.555 15.3329C21.5722 10.1125 10.113 21.5696 15.3336 32.5536L20.974 44.4203L8.59443 48.8231C-2.86481 52.8969 -2.86481 69.1031 8.59443 73.1769L20.974 77.5797L15.3336 89.4464C10.113 100.43 21.5722 111.898 32.555 106.667L44.4221 101.027L48.8252 113.406C52.8957 124.865 69.1025 124.865 73.1748 113.406Z" fill="#F992D3"/>
<ellipse cx="13.8636" cy="14.4578" rx="13.8636" ry="14.4578" transform="matrix(1 0 0 -1 47.1367 75.6559)" fill="#D604C1"/>
</svg>
