<svg width="344" height="344" viewBox="0 0 344 344" fill="none" xmlns="http://www.w3.org/2000/svg">
<path d="M206.329 319.768L218.744 284.863L252.206 300.766C283.178 315.491 315.514 283.181 300.764 252.209L284.86 218.749L319.767 206.335C352.078 194.848 352.078 149.152 319.767 137.665L284.86 125.251L300.764 91.7905C315.49 60.8191 283.178 28.514 252.206 43.2338L218.744 59.1374L206.329 24.2324C194.842 -8.07751 149.149 -8.07751 137.657 24.2324L125.256 59.1374L91.7944 43.2338C60.8266 28.514 28.5153 60.8191 43.2356 91.7905L59.1399 125.251L24.2335 137.665C-8.07783 149.152 -8.07783 194.848 24.2335 206.335L59.1399 218.749L43.2356 252.209C28.5153 283.181 60.8266 315.515 91.7944 300.766L125.256 284.863L137.671 319.768C149.149 352.077 194.847 352.077 206.329 319.768Z" fill="#FF4522"/>
<ellipse cx="39.0909" cy="40.7662" rx="39.0909" ry="40.7662" transform="matrix(1 0 0 -1 132.909 213.325)" fill="#FAF7EF"/>
</svg>
