<svg width="596" height="498" viewBox="0 0 596 498" fill="none" xmlns="http://www.w3.org/2000/svg">
<path d="M593.87 144.437C573.087 165.08 547.156 171.764 521.935 172.165L521.935 172.165C503.89 172.457 489.253 178.199 479.165 188.539C469.078 198.879 463.699 213.652 463.852 231.699L463.852 231.7C464.078 257.352 457.824 283.899 436.868 305.379C415.912 326.859 389.526 333.766 363.877 334.173L363.876 334.173C345.831 334.465 331.195 340.207 321.107 350.547C311.019 360.887 305.64 375.661 305.794 393.708L305.794 393.708C306.019 419.36 299.766 445.908 278.81 467.388C257.625 489.101 231.254 495.991 205.684 496.3C180.342 496.606 155.914 490.448 138.299 485.918L2.13002 353.181C22.9128 332.538 48.8444 325.854 74.065 325.453L74.0655 325.453C92.1104 325.161 106.747 319.419 116.835 309.079C126.922 298.739 132.301 283.966 132.148 265.919L132.148 265.918C131.923 240.266 138.176 213.719 159.132 192.239C180.088 170.759 206.474 163.852 232.123 163.445L232.124 163.445C250.169 163.153 264.805 157.411 274.893 147.071C284.981 136.731 290.36 121.957 290.206 103.91L290.206 103.91C289.981 78.258 296.234 51.7105 317.19 30.2303C338.426 8.46398 364.913 1.74744 390.592 1.62682C415.86 1.50814 440.211 7.77605 457.809 12.3059L458.506 12.4853L593.87 144.437Z" stroke="#F992D3" stroke-width="3"/>
</svg>
