<svg width="494" height="494" viewBox="0 0 494 494" fill="none" xmlns="http://www.w3.org/2000/svg">
<path d="M264.828 121.502L372.471 29.8531L346.863 168.865L346.562 170.499L348.219 170.632L489.176 181.931L372.741 262.147L371.372 263.09L372.45 264.355L464.146 371.986L325.087 346.391L323.452 346.09L323.32 347.747L312.068 488.691L231.804 372.268L230.861 370.9L229.596 371.978L122.013 463.661L147.561 324.614L147.861 322.98L146.205 322.848L5.30785 311.583L121.684 231.331L123.051 230.388L121.974 229.124L30.3382 121.527L169.337 147.088L170.971 147.389L171.104 145.733L182.416 4.82275L262.62 121.211L263.563 122.579L264.828 121.502Z" stroke="#D604C1" stroke-width="3"/>
</svg>
