<svg width="501" height="501" viewBox="0 0 501 501" fill="none" xmlns="http://www.w3.org/2000/svg">
<path d="M473.523 324.262L473.098 324.699V325.308V325.452V325.5L473.101 325.547C476.629 381.062 441.075 431.202 388.711 444.903L388.552 444.945L388.405 445.02L388.265 445.092L387.892 445.284L387.672 445.642C358.775 492.743 301.355 511.897 251.07 491.241L250.5 491.007L249.93 491.241C199.645 511.897 142.225 492.743 113.328 445.642L113.108 445.284L112.735 445.092L112.595 445.02L112.448 444.945L112.289 444.903C59.9246 431.202 24.3709 381.062 27.8986 325.547L27.9016 325.5V325.452V325.308V324.699L27.4767 324.262L27.3849 324.168C-7.12877 281.414 -7.12768 219.514 27.3844 176.833L27.4766 176.738L27.9016 176.301V175.692V175.548V175.5L27.8986 175.453C24.3709 119.938 59.9246 69.7978 112.289 56.0966L112.448 56.0549L112.595 55.9796L112.735 55.9076L113.108 55.7157L113.328 55.3579C142.225 8.25666 199.645 -10.8967 249.93 9.759L250.5 9.99311L251.07 9.759C301.355 -10.8967 358.775 8.25666 387.672 55.3579L387.892 55.7157L388.265 55.9076L388.405 55.9795L388.552 56.0549L388.711 56.0966C441.075 69.7978 476.629 119.938 473.101 175.453L473.098 175.5V175.548V175.692V176.301L473.523 176.738L473.616 176.833C508.128 219.514 508.129 281.414 473.615 324.168L473.523 324.262Z" stroke="#FF4522" stroke-width="3"/>
</svg>
