<svg width="502" height="502" viewBox="0 0 502 502" fill="none" xmlns="http://www.w3.org/2000/svg">
<mask id="path-1-inside-1_1721_1809" fill="white">
<path fill-rule="evenodd" clip-rule="evenodd" d="M33.7771 304.828C-11.2589 349.864 -11.2589 422.882 33.7772 467.918C78.8132 512.954 151.831 512.954 196.867 467.918L250.848 413.938L304.828 467.919C349.864 512.955 422.882 512.955 467.918 467.918C512.954 422.882 512.954 349.865 467.918 304.828L413.938 250.848L467.918 196.867C512.954 151.831 512.954 78.8131 467.918 33.7771C422.882 -11.259 349.864 -11.2591 304.828 33.777L250.848 87.7578L196.867 33.7773C151.831 -11.2588 78.8131 -11.2588 33.7771 33.7773C-11.259 78.8134 -11.259 151.831 33.777 196.867L87.7575 250.848L33.7771 304.828Z"/>
</mask>
<path d="M33.7772 467.918L31.6559 470.04L33.7772 467.918ZM33.7771 304.828L31.6558 302.707L33.7771 304.828ZM196.867 467.918L194.746 465.797L196.867 467.918ZM250.848 413.938L252.969 411.817L250.848 409.695L248.726 411.817L250.848 413.938ZM304.828 467.919L302.707 470.04L304.828 467.919ZM467.918 467.918L470.04 470.04L467.918 467.918ZM467.918 304.828L465.797 306.95L467.918 304.828ZM413.938 250.848L411.816 248.727L409.695 250.848L411.816 252.969L413.938 250.848ZM467.918 33.7771L470.04 31.6558L467.918 33.7771ZM304.828 33.777L306.95 35.8983L304.828 33.777ZM250.848 87.7578L248.726 89.8791L250.848 92.0004L252.969 89.8791L250.848 87.7578ZM196.867 33.7773L198.988 31.656L196.867 33.7773ZM33.7771 33.7773L35.8984 35.8986L33.7771 33.7773ZM33.777 196.867L35.8983 194.746H35.8983L33.777 196.867ZM87.7575 250.848L89.8789 252.969L92.0002 250.848L89.8789 248.727L87.7575 250.848ZM35.8985 465.797C-7.96599 421.932 -7.96601 350.814 35.8985 306.95L31.6558 302.707C-14.5518 348.915 -14.5518 423.832 31.6559 470.04L35.8985 465.797ZM194.746 465.797C150.881 509.662 79.763 509.661 35.8985 465.797L31.6559 470.04C77.8635 516.247 152.781 516.247 198.988 470.04L194.746 465.797ZM248.726 411.817L194.746 465.797L198.988 470.04L252.969 416.059L248.726 411.817ZM306.949 465.797L252.969 411.817L248.726 416.059L302.707 470.04L306.949 465.797ZM465.797 465.797C421.932 509.662 350.814 509.662 306.949 465.797L302.707 470.04C348.915 516.247 423.832 516.247 470.04 470.04L465.797 465.797ZM465.797 306.95C509.661 350.814 509.661 421.933 465.797 465.797L470.04 470.04C516.247 423.832 516.247 348.915 470.04 302.707L465.797 306.95ZM411.816 252.969L465.797 306.95L470.04 302.707L416.059 248.727L411.816 252.969ZM465.797 194.746L411.816 248.727L416.059 252.969L470.04 198.988L465.797 194.746ZM465.797 35.8984C509.661 79.7629 509.661 150.881 465.797 194.746L470.04 198.988C516.247 152.781 516.247 77.8634 470.04 31.6558L465.797 35.8984ZM306.95 35.8983C350.814 -7.96615 421.932 -7.96609 465.797 35.8984L470.04 31.6558C423.832 -14.5519 348.915 -14.5519 302.707 31.6557L306.95 35.8983ZM252.969 89.8791L306.95 35.8983L302.707 31.6557L248.726 85.6365L252.969 89.8791ZM194.746 35.8986L248.726 89.8791L252.969 85.6365L198.988 31.656L194.746 35.8986ZM35.8984 35.8986C79.7629 -7.96587 150.881 -7.96589 194.746 35.8986L198.988 31.656C152.781 -14.5517 77.8634 -14.5517 31.6558 31.656L35.8984 35.8986ZM35.8983 194.746C-7.96615 150.881 -7.96609 79.7631 35.8984 35.8986L31.6558 31.656C-14.5519 77.8636 -14.5519 152.781 31.6557 198.989L35.8983 194.746ZM89.8789 248.727L35.8983 194.746L31.6557 198.989L85.6362 252.969L89.8789 248.727ZM35.8985 306.95L89.8789 252.969L85.6362 248.727L31.6558 302.707L35.8985 306.95Z" fill="#3DDC97" mask="url(#path-1-inside-1_1721_1809)"/>
</svg>
