<svg width="32" height="32" viewBox="0 0 32 32" fill="none" xmlns="http://www.w3.org/2000/svg">
<g clip-path="url(#clip0_3300_3189)">
<path d="M19.1934 29.7458L20.3483 26.4988L23.461 27.9783C26.3422 29.348 29.3501 26.3424 27.9781 23.4613L26.4986 20.3488L29.7457 19.1939C32.7514 18.1254 32.7514 13.8746 29.7457 12.8061L26.4986 11.6512L27.9781 8.53865C29.3479 5.65759 26.3422 2.65247 23.461 4.02174L20.3483 5.50116L19.1934 2.25418C18.1248 -0.751398 13.8743 -0.751398 12.8053 2.25418L11.6517 5.50116L8.53902 4.02174C5.65829 2.65247 2.65258 5.65759 4.02192 8.53865L5.50139 11.6512L2.25428 12.8061C-0.751426 13.8746 -0.751426 18.1254 2.25428 19.1939L5.50139 20.3488L4.02192 23.4613C2.65258 26.3424 5.65829 29.3502 8.53902 27.9783L11.6517 26.4988L12.8066 29.7458C13.8743 32.7514 18.1253 32.7514 19.1934 29.7458Z" fill="#F992D3"/>
<ellipse cx="3.63636" cy="3.79221" rx="3.63636" ry="3.79221" transform="matrix(1 0 0 -1 12.3633 19.8442)" fill="#D604C1"/>
</g>
<defs>
<clipPath id="clip0_3300_3189">
<rect width="32" height="32" fill="white"/>
</clipPath>
</defs>
</svg>
