<svg width="117" height="117" viewBox="0 0 117 117" fill="none" xmlns="http://www.w3.org/2000/svg">
<circle cx="58.5" cy="58.5" r="58.5" fill="#FF4522"/>
<g clip-path="url(#clip0)">
<path d="M56.1671 40.1493C56.1671 40.1493 53.9743 38.8889 55.7073 36.5884C57.4403 34.2879 59.7391 32.7983 57.3165 30.9561C54.8939 29.1139 52.4801 31.0707 51.4368 33.6004C50.3935 36.13 50.8621 38.6509 47.2901 37.8488C43.7181 37.0467 39.8012 38.4217 36.8039 43.5957C33.8066 48.7608 31.5078 48.99 30.0047 50.3738C28.5105 51.7489 24.4698 56.9228 27.9269 62.3171C29.6068 64.935 32.2239 66.0103 34.4874 66.4334C36.353 66.7771 38.2716 66.689 40.1107 66.2306C42.7013 65.5872 48.466 64.5119 48.5544 67.7202C48.6694 71.8541 44.9824 73.6963 40.0311 76.9135C35.0798 80.1219 30.8181 83.912 31.1629 88.1693C31.5078 92.4265 35.3097 96.5516 40.6146 96.3224C45.9108 96.0933 49.7215 91.501 50.1813 87.4818C50.641 83.4625 46.8391 84.9521 45.3449 86.7943C43.8507 88.6364 38.7756 90.9281 38.5457 86.4505C38.3158 81.9729 45.5748 79.7869 49.0319 77.7244C52.4889 75.6531 58.015 70.7171 52.6039 61.2947C52.6039 61.2947 50.2962 56.4733 52.374 53.0269C54.4518 49.5806 58.2537 47.28 58.3686 44.53C58.4836 41.78 56.1671 40.1493 56.1671 40.1493ZM49.6243 47.8442C49.2794 49.9948 47.3785 51.1142 45.9108 52.5862C44.4431 54.0494 42.5421 56.7201 41.5872 57.8395C40.6323 58.9589 38.2186 59.9902 36.9188 58.7914C35.6191 57.5839 35.4511 54.0494 39.6863 49.4836C43.9214 44.9178 46.512 45.2616 46.512 45.2616C47.8117 44.9178 49.9691 45.6935 49.6243 47.8442Z" fill="#99018A"/>
<path d="M85.8043 64.4766C85.1589 63.9037 84.3896 63.4365 83.8768 62.7402C82.9573 61.515 82.9838 59.8491 82.9573 58.3243C82.9219 56.5702 82.7363 54.7721 81.914 53.2296C81.0917 51.6871 79.5002 50.4355 77.7496 50.4708C76.052 50.506 74.6108 51.6695 73.3199 52.7713C71.7284 54.1287 70.137 55.4949 68.5455 56.8523C67.9796 57.3371 67.3961 57.8218 66.6887 58.0422C65.9814 58.2626 65.1061 58.1303 64.6728 57.531C64.2219 56.9228 64.3545 56.0854 64.5402 55.3539C65.6012 51.2817 67.9177 47.6502 69.3766 43.7015C71.8699 36.9674 71.6047 28.8935 67.29 23.1467C66.5296 22.133 65.6189 21.1723 64.4606 20.6611C63.3024 20.1498 61.8347 20.1498 60.8444 20.9431C59.8541 21.7364 59.5712 23.3847 60.4554 24.3013C60.8444 24.7068 61.3837 24.9183 61.8612 25.2092C63.9213 26.4961 64.5756 29.1668 64.7259 31.5819C65.1768 38.8184 62.5774 46.1871 57.6968 51.5549C56.9276 52.4011 56.0876 53.2296 55.6367 54.2785C54.6995 56.4821 55.7339 58.9941 56.9276 61.0655C58.1212 63.1368 59.5358 65.2963 59.3855 67.685C59.2441 69.959 57.6703 71.9687 57.573 74.2516C57.4934 76.0673 58.3864 77.8125 59.6331 79.1435C59.7657 79.2845 59.8984 79.4343 60.031 79.5754C60.7206 80.3687 63.4704 83.1363 67.8204 82.4664C69.1467 82.2637 70.3315 81.3206 71.6754 81.3823C73.0016 81.4352 74.1776 82.202 75.4331 82.6604C78.4746 83.7709 82.0555 82.9248 84.5134 80.827C86.9714 78.7292 88.3595 75.5296 88.5629 72.3124C88.7397 69.4478 87.9528 66.3805 85.8043 64.4766ZM68.8903 66.0896C69.4385 64.882 70.1723 63.7538 71.03 62.7402C71.6666 61.9822 72.3297 61.2418 73.1962 60.7834C74.3809 60.1576 76.1404 60.3163 76.7328 61.515C77.3429 62.7402 76.441 64.1593 76.3172 65.5255C76.22 66.6273 76.6355 67.7114 76.6974 68.8132C76.777 70.3645 76.1051 71.9334 74.9291 72.9471C73.7532 73.9607 72.091 74.3926 70.5702 74.0841C69.3854 73.8461 68.2537 72.9823 68.1034 71.7836C67.9 70.1618 68.2537 68.2579 68.4747 67.306C68.572 66.9005 68.6958 66.5039 68.8726 66.1249C68.8726 66.116 68.8814 66.0984 68.8903 66.0896Z" fill="#99018A"/>
</g>
<defs>
<clipPath id="clip0">
<rect width="62.0063" height="76.0315" fill="white" transform="translate(26.5741 20.2997)"/>
</clipPath>
</defs>
</svg>
