<svg width="292" height="292" viewBox="0 0 292 292" fill="none" xmlns="http://www.w3.org/2000/svg">
<path d="M275.537 188.555L275.112 188.992V189.601V189.685V189.732L275.115 189.78C277.153 221.848 256.615 250.793 226.396 258.7L226.236 258.741L226.09 258.817L226.008 258.859L225.635 259.051L225.415 259.408C208.73 286.605 175.587 297.653 146.57 285.733L146 285.499L145.43 285.733C116.413 297.653 83.2704 286.605 66.5847 259.408L66.3652 259.051L65.9919 258.859L65.9102 258.817L65.7636 258.741L65.6042 258.7C35.3845 250.793 14.847 221.848 16.8847 189.78L16.8878 189.732V189.685V189.601V188.992L16.4628 188.555L16.4296 188.521C-3.477 163.839 -3.4759 128.118 16.4291 103.48L16.4628 103.445L16.8878 103.009V102.399V102.315V102.268L16.8847 102.22C14.847 70.1524 35.3845 41.2074 65.6042 33.3004L65.7635 33.2587L65.91 33.1834L65.9916 33.1415L66.3651 32.9496L66.5847 32.5917C83.2704 5.39481 116.413 -5.6527 145.43 6.2667L146 6.50081L146.57 6.2667C175.587 -5.6527 208.73 5.39481 225.415 32.5917L225.635 32.9495L226.008 33.1414L226.09 33.1834L226.236 33.2587L226.396 33.3004C256.615 41.2074 277.153 70.1524 275.115 102.22L275.112 102.268V102.315V102.399V103.009L275.537 103.445L275.571 103.48C295.476 128.118 295.477 163.839 275.571 188.52L275.537 188.555Z" fill="#9CEAEF" stroke="#9CEAEF" strokeWidth="3"/>
</svg>
