<svg width="351" height="172" viewBox="0 0 351 172" fill="none" xmlns="http://www.w3.org/2000/svg">
<g clip-path="url(#clip0)">
<path d="M175.5 0V98.1482C216.964 98.1482 250.714 131.105 250.714 171.519C250.714 171.759 250.714 172 250.714 172H351.241C351.241 171.759 351.241 171.519 351.241 171.519C351 76.7385 272.411 0 175.5 0Z" fill="#12CBE8"/>
<path d="M0 171.519C0 171.759 0 172 0 172H100.527C100.527 171.759 100.527 171.519 100.527 171.519C100.527 131.105 134.036 98.1482 175.5 98.1482V0C78.5893 0 0 76.7385 0 171.519Z" fill="#9CEAEF"/>
</g>
<defs>
<clipPath id="clip0">
<rect width="351" height="172" fill="white"/>
</clipPath>
</defs>
</svg>
