<svg width="342" height="286" viewBox="0 0 342 286" fill="none" xmlns="http://www.w3.org/2000/svg">
<path d="M262.926 6.9089L341.279 83.2871C329.071 95.8001 313.714 99.7984 298.882 100.034C278.568 100.363 266.296 112.942 266.468 133.258C266.599 148.091 262.98 163.543 250.773 176.056C238.565 188.569 223.207 192.567 208.375 192.803C188.061 193.132 175.789 205.711 175.961 226.027C176.092 240.86 172.474 256.312 160.266 268.824C135.591 294.116 98.8678 284.785 78.6663 279.587L78.6987 279.554L0 202.839C12.2079 190.326 27.5655 186.327 42.3972 186.092C62.7112 185.763 74.9839 173.184 74.8113 152.868C74.6808 138.035 78.2989 122.583 90.5068 110.07C102.715 97.5571 118.072 93.5588 132.904 93.3231C153.218 92.9942 165.491 80.4149 165.318 60.0989C165.188 45.2659 168.806 29.8143 181.014 17.3014C205.753 -8.05653 242.692 1.74457 262.894 6.9421L262.926 6.9089Z" fill="#D604C1"/>
</svg>
