<svg preserveAspectRatio="none" width="100%" height="100%" overflow="visible" style="display: block;" viewBox="0 0 213.406 230.125" fill="none" xmlns="http://www.w3.org/2000/svg">
<g id="Estrelinha-amarela">
<path id="Vector" d="M83.7035 30.3685C83.8478 28.43 86.3261 27.7143 87.3494 29.3156L111.145 66.552C111.796 67.5699 113.201 67.7308 114.115 66.8919L146.051 37.5715C147.459 36.2787 149.623 37.4524 149.301 39.3343L141.612 84.3443C141.416 85.4924 142.202 86.5411 143.332 86.6388L185.674 90.2989C187.484 90.4554 188.07 92.8174 186.575 93.9284L151.6 119.911C150.667 120.605 150.472 121.937 151.174 122.826L178.707 157.676C179.858 159.132 178.527 161.316 176.708 160.955L135.454 152.766C134.273 152.532 133.13 153.429 133.039 154.662L129.7 199.754C129.557 201.693 127.079 202.41 126.055 200.808L102.241 163.56C101.59 162.542 100.184 162.382 99.2707 163.221L67.3543 192.551C65.9468 193.845 63.7822 192.672 64.1028 190.79L71.7743 145.767C71.9699 144.619 71.1835 143.571 70.0536 143.474L27.7308 139.825C25.9208 139.669 25.3336 137.307 26.8284 136.196L61.7865 110.201C62.7195 109.507 62.9141 108.175 62.2124 107.287L34.6969 72.4477C33.5464 70.9909 34.8766 68.8083 36.6952 69.1689L77.9328 77.3462C79.1128 77.5802 80.2556 76.6834 80.3473 75.4513L83.7035 30.3685Z" fill="var(--fill-0, #FFC73B)"/>
<g id="Group 22">
<path id="Ellipse 8" d="M96.5 112C95.6716 112 94.9903 112.674 95.0936 113.496C95.4241 116.127 96.6199 118.59 98.5147 120.485C100.765 122.736 103.817 124 107 124C110.183 124 113.235 122.736 115.485 120.485C117.38 118.59 118.576 116.127 118.906 113.496C119.01 112.674 118.328 112 117.5 112V112C116.672 112 116.013 112.676 115.875 113.493C115.567 115.326 114.696 117.032 113.364 118.364C111.676 120.052 109.387 121 107 121C104.613 121 102.324 120.052 100.636 118.364C99.3043 117.032 98.4331 115.326 98.1247 113.493C97.9872 112.676 97.3284 112 96.5 112V112Z" fill="var(--fill-0, #400039)"/>
<circle id="Ellipse 9" cx="88" cy="109" r="3" fill="var(--fill-0, #400039)"/>
<circle id="Ellipse 10" cx="126" cy="109" r="3" fill="var(--fill-0, #400039)"/>
</g>
</g>
</svg>
