<svg preserveAspectRatio="none" width="100%" height="100%" overflow="visible" style="display: block;" viewBox="0 0 218 162" fill="none" xmlns="http://www.w3.org/2000/svg">
<g id="Flor Roxa">
<path id="Vector" d="M124.982 119.809L125 162C118.253 162 113.01 158.838 108.948 154.808C103.382 149.29 96.5999 149.29 91.0344 154.808C86.9721 158.838 81.7287 162 74.9821 162C68.2355 162 62.9921 158.838 58.9298 154.808C53.3643 149.29 46.582 149.29 41.0165 154.808C36.9542 158.838 31.7108 162 24.9642 162C11.3278 162 4.00859 149.352 0 142.377H0.0178955L0 100C6.7466 100 11.99 103.162 16.0523 107.192C21.6178 112.71 28.4001 112.71 33.9656 107.192C38.0279 103.162 43.2713 100 50.0179 100C56.7645 100 62.0079 103.162 66.0702 107.192C71.6356 112.71 78.418 112.71 83.9835 107.192C88.0458 103.162 93.2892 100 100.036 100C113.708 100 120.956 112.834 124.964 119.809H124.982Z" fill="var(--fill-0, #3DDC97)"/>
<path id="Vector_2" d="M153.167 150.588L159.013 134.15L174.771 141.64C189.357 148.574 204.585 133.358 197.639 118.773L190.149 103.016L206.588 97.1693C221.804 91.7598 221.804 70.2402 206.588 64.8307L190.149 58.9843L197.639 43.2269C204.574 28.6416 189.357 13.4281 174.771 20.3601L159.013 27.8496L153.167 11.4118C147.757 -3.80393 126.239 -3.80393 120.827 11.4118L114.987 27.8496L99.2288 20.3601C84.6451 13.4281 69.4287 28.6416 76.361 43.2269L83.8508 58.9843L67.4123 64.8307C52.1959 70.2402 52.1959 91.7598 67.4123 97.1693L83.8508 103.016L76.361 118.773C69.4287 133.358 84.6451 148.586 99.2288 141.64L114.987 134.15L120.833 150.588C126.239 165.804 147.759 165.804 153.167 150.588Z" fill="var(--fill-0, #D604C1)"/>
<ellipse id="Ellipse 7" cx="18" cy="19" rx="18" ry="19" transform="matrix(1 0 0 -1 119 100)" fill="var(--fill-0, #FFC73B)"/>
</g>
</svg>
