<svg preserveAspectRatio="none" width="100%" height="100%" overflow="visible" style="display: block;" viewBox="0 0 292 292" fill="none" xmlns="http://www.w3.org/2000/svg">
<g id="Bonequinho verde">
<path id="Vector" d="M276.694 189.517L276.612 189.601V189.685C278.694 222.443 257.714 252.056 226.775 260.151L226.694 260.193C209.633 288.002 175.714 299.327 146 287.121C116.286 299.327 82.3673 288.002 65.3061 260.193L65.2245 260.151C34.2857 252.056 13.3061 222.443 15.3878 189.685V189.601L15.3061 189.517C-5.10204 164.267 -5.10204 127.691 15.3061 102.483L15.3878 102.399V102.315C13.3061 69.5569 34.2857 39.9444 65.2245 31.8492L65.3061 31.8073C82.3673 3.99837 116.286 -7.32653 146 4.87919C175.714 -7.32653 209.633 3.99837 226.694 31.8073L226.775 31.8492C257.714 39.9444 278.694 69.5569 276.612 102.315V102.399L276.694 102.483C297.102 127.691 297.102 164.267 276.694 189.517Z" fill="var(--fill-0, #3DDC97)"/>
<path id="Ellipse 8" d="M134.875 124.5C133.839 124.5 132.987 125.343 133.125 126.369C133.55 129.525 135.04 132.478 137.393 134.753C140.206 137.472 144.022 139 148 139C151.978 139 155.794 137.472 158.607 134.753C160.96 132.478 162.45 129.525 162.875 126.369C163.013 125.343 162.161 124.5 161.125 124.5V124.5C160.089 124.5 159.267 125.346 159.083 126.365C158.689 128.556 157.604 130.595 155.955 132.189C153.845 134.229 150.984 135.375 148 135.375C145.016 135.375 142.155 134.229 140.045 132.189C138.396 130.595 137.311 128.556 136.917 126.365C136.733 125.346 135.911 124.5 134.875 124.5V124.5Z" fill="var(--fill-0, #400039)"/>
<circle id="Ellipse 11" cx="108.5" cy="93.4995" r="33.5" fill="var(--fill-0, white)"/>
<ellipse id="Ellipse 13" cx="109" cy="93.4995" rx="19" ry="18.5" fill="var(--fill-0, #400039)"/>
<circle id="Ellipse 12" cx="187.5" cy="93.4995" r="33.5" fill="var(--fill-0, white)"/>
<ellipse id="Ellipse 14" cx="187" cy="93.4995" rx="19" ry="18.5" fill="var(--fill-0, #400039)"/>
</g>
</svg>
