<svg preserveAspectRatio="none" width="100%" height="100%" overflow="visible" style="display: block;" viewBox="0 0 758 758" fill="none" xmlns="http://www.w3.org/2000/svg">
<g id="Union">
<mask id="path-1-inside-1_0_120" fill="white">
<path d="M460.557 51.033C528.601 -17.011 638.923 -17.011 706.967 51.033C775.011 119.077 775.011 229.398 706.967 297.442L625.409 379L706.967 460.557C775.01 528.601 775.011 638.923 706.968 706.967C638.924 775.011 528.602 775.011 460.558 706.967L379 625.408L297.442 706.967C229.398 775.011 119.077 775.011 51.033 706.967C-17.011 638.923 -17.011 528.601 51.033 460.557L132.591 378.999L51.033 297.442C-17.011 229.398 -17.0109 119.077 51.033 51.033C119.077 -17.011 229.398 -17.011 297.442 51.033L379 132.591L460.557 51.033Z"/>
</mask>
<path d="M460.557 51.033C528.601 -17.011 638.923 -17.011 706.967 51.033C775.011 119.077 775.011 229.398 706.967 297.442L625.409 379L706.967 460.557C775.01 528.601 775.011 638.923 706.968 706.967C638.924 775.011 528.602 775.011 460.558 706.967L379 625.408L297.442 706.967C229.398 775.011 119.077 775.011 51.033 706.967C-17.011 638.923 -17.011 528.601 51.033 460.557L132.591 378.999L51.033 297.442C-17.011 229.398 -17.0109 119.077 51.033 51.033C119.077 -17.011 229.398 -17.011 297.442 51.033L379 132.591L460.557 51.033Z" fill="var(--fill-0, #9CEAEF)"/>
<path d="M460.557 51.033L462.679 53.1543V53.1543L460.557 51.033ZM706.967 51.033L709.088 48.9117V48.9117L706.967 51.033ZM706.967 297.442L709.088 299.564V299.564L706.967 297.442ZM625.409 379L623.288 376.879L621.166 379L623.288 381.121L625.409 379ZM706.967 460.557L709.088 458.436V458.436L706.967 460.557ZM706.968 706.967L709.089 709.088V709.088L706.968 706.967ZM460.558 706.967L458.437 709.088V709.088L460.558 706.967ZM379 625.408L381.121 623.287L379 621.165L376.878 623.287L379 625.408ZM297.442 706.967L299.563 709.088H299.564L297.442 706.967ZM51.033 706.967L48.9117 709.088V709.088L51.033 706.967ZM51.033 460.557L53.1543 462.679H53.1543L51.033 460.557ZM132.591 378.999L134.712 381.12L136.833 378.999L134.712 376.878L132.591 378.999ZM51.033 297.442L48.9117 299.564L48.9117 299.564L51.033 297.442ZM51.033 51.033L48.9117 48.9117H48.9117L51.033 51.033ZM297.442 51.033L295.321 53.1543V53.1543L297.442 51.033ZM379 132.591L376.879 134.712L379 136.833L381.121 134.712L379 132.591ZM460.557 51.033L462.679 53.1543C529.551 -13.7181 637.973 -13.7181 704.845 53.1543L706.967 51.033L709.088 48.9117C639.872 -20.3039 527.652 -20.3039 458.436 48.9117L460.557 51.033ZM706.967 51.033L704.845 53.1543C771.718 120.027 771.718 228.448 704.845 295.321L706.967 297.442L709.088 299.564C778.304 230.348 778.303 118.127 709.088 48.9117L706.967 51.033ZM706.967 297.442L704.845 295.321L623.288 376.879L625.409 379L627.53 381.121L709.088 299.564L706.967 297.442ZM625.409 379L623.288 381.121L704.845 462.679L706.967 460.557L709.088 458.436L627.53 376.879L625.409 379ZM706.967 460.557L704.845 462.679C771.718 529.551 771.718 637.973 704.846 704.845L706.968 706.967L709.089 709.088C778.304 639.872 778.303 527.652 709.088 458.436L706.967 460.557ZM706.968 706.967L704.846 704.845C637.974 771.718 529.552 771.718 462.68 704.845L460.558 706.967L458.437 709.088C527.653 778.303 639.873 778.304 709.089 709.088L706.968 706.967ZM460.558 706.967L462.68 704.845L381.121 623.287L379 625.408L376.879 627.529L458.437 709.088L460.558 706.967ZM379 625.408L376.878 623.287L295.321 704.845L297.442 706.967L299.564 709.088L381.121 627.529L379 625.408ZM297.442 706.967L295.321 704.845C228.448 771.718 120.027 771.718 53.1543 704.845L51.033 706.967L48.9117 709.088C118.127 778.304 230.348 778.304 299.563 709.088L297.442 706.967ZM51.033 706.967L53.1543 704.845C-13.7181 637.973 -13.7181 529.551 53.1543 462.679L51.033 460.557L48.9117 458.436C-20.3039 527.652 -20.3039 639.872 48.9117 709.088L51.033 706.967ZM51.033 460.557L53.1543 462.679L134.712 381.12L132.591 378.999L130.469 376.878L48.9117 458.436L51.033 460.557ZM132.591 378.999L134.712 376.878L53.1543 295.321L51.033 297.442L48.9117 299.564L130.469 381.12L132.591 378.999ZM51.033 297.442L53.1543 295.321C-13.7181 228.448 -13.718 120.027 53.1543 53.1543L51.033 51.033L48.9117 48.9117C-20.3037 118.127 -20.3039 230.348 48.9117 299.564L51.033 297.442ZM51.033 51.033L53.1543 53.1543C120.027 -13.7181 228.448 -13.7181 295.321 53.1543L297.442 51.033L299.563 48.9117C230.348 -20.3039 118.127 -20.3039 48.9117 48.9117L51.033 51.033ZM297.442 51.033L295.321 53.1543L376.879 134.712L379 132.591L381.121 130.469L299.563 48.9117L297.442 51.033ZM379 132.591L381.121 134.712L462.679 53.1543L460.557 51.033L458.436 48.9117L376.879 130.469L379 132.591Z" fill="var(--stroke-0, #9CEAEF)" mask="url(#path-1-inside-1_0_120)"/>
</g>
</svg>
