<svg preserveAspectRatio="none" width="100%" height="100%" overflow="visible" style="display: block;" viewBox="0 0 308 308" fill="none" xmlns="http://www.w3.org/2000/svg">
<g id="Flor Rosa">
<path id="Vector" d="M184.736 286.304L195.852 255.051L225.812 269.291C253.543 282.474 282.495 253.546 269.289 225.815L255.049 195.857L286.303 184.742C315.232 174.457 315.232 133.543 286.303 123.258L255.049 112.143L269.289 82.1845C282.473 54.4544 253.543 25.53 225.812 38.7093L195.852 52.9487L184.736 21.6965C174.451 -7.23217 133.54 -7.23217 123.251 21.6965L112.148 52.9487L82.188 38.7093C54.461 25.53 25.5311 54.4544 38.711 82.1845L52.9509 112.143L21.6974 123.258C-7.23247 133.543 -7.23247 174.457 21.6974 184.742L52.9509 195.857L38.711 225.815C25.5311 253.546 54.461 282.496 82.188 269.291L112.148 255.051L123.264 286.304C133.54 315.232 174.456 315.232 184.736 286.304Z" fill="var(--fill-0, #FF4522)"/>
<ellipse id="Ellipse 6" cx="35" cy="36.5" rx="35" ry="36.5" transform="matrix(1 0 0 -1 119 191)" fill="var(--fill-0, #FAF7EF)"/>
</g>
</svg>
