<svg preserveAspectRatio="none" width="100%" height="100%" overflow="visible" style="display: block;" viewBox="0 0 361 327" fill="none" xmlns="http://www.w3.org/2000/svg">
<g id="Bonequinho azul">
<path id="Vector" d="M276.694 224.517L276.612 224.601V224.685C278.694 257.443 257.714 287.056 226.775 295.151L226.694 295.193C209.633 323.002 175.714 334.327 146 322.121C116.286 334.327 82.3673 323.002 65.3061 295.193L65.2245 295.151C34.2857 287.056 13.3061 257.443 15.3878 224.685V224.601L15.3061 224.517C-5.10204 199.267 -5.10204 162.692 15.3061 137.483L15.3878 137.4V137.316C13.3061 104.557 34.2857 74.9448 65.2245 66.8496L65.3061 66.8076C82.3673 38.9987 116.286 27.6738 146 39.8796C175.714 27.6738 209.633 38.9987 226.694 66.8076L226.775 66.8496C257.714 74.9448 278.694 104.557 276.612 137.316V137.4L276.694 137.483C297.102 162.692 297.102 199.267 276.694 224.517Z" fill="var(--fill-0, #9CEAEF)"/>
<path id="Ellipse 8" d="M129.625 220C128.175 220 126.983 221.18 127.164 222.618C127.742 227.222 129.835 231.533 133.151 234.849C137.089 238.788 142.43 241 148 241C153.57 241 158.911 238.788 162.849 234.849C166.165 231.533 168.258 227.222 168.836 222.618C169.017 221.18 167.825 220 166.375 220V220C164.925 220 163.772 221.183 163.532 222.613C162.992 225.821 161.467 228.806 159.137 231.137C156.183 234.091 152.177 235.75 148 235.75C143.823 235.75 139.817 234.091 136.863 231.137C134.533 228.806 133.008 225.821 132.468 222.613C132.228 221.183 131.075 220 129.625 220V220Z" fill="var(--fill-0, #400039)"/>
<circle id="Ellipse 11" cx="92" cy="176" r="48" fill="var(--fill-0, white)"/>
<circle id="Ellipse 13" cx="92" cy="176" r="27" fill="var(--fill-0, #400039)"/>
<circle id="Ellipse 12" cx="204" cy="176" r="48" fill="var(--fill-0, white)"/>
<circle id="Ellipse 14" cx="204" cy="176" r="27" fill="var(--fill-0, #400039)"/>
<path id="Topete" d="M360.97 33.867L361 106C349.504 106 340.569 100.594 333.647 93.704C324.163 84.27 312.606 84.27 303.123 93.704C296.2 100.594 287.266 106 275.77 106C264.273 106 255.339 100.594 248.416 93.704C238.933 84.27 227.376 84.27 217.892 93.704C210.97 100.594 202.035 106 190.539 106C167.303 106 154.831 84.376 148 72.451H148.03L148 0C159.496 0 168.431 5.406 175.353 12.296C184.837 21.73 196.394 21.73 205.877 12.296C212.8 5.406 221.734 0 233.23 0C244.727 0 253.661 5.406 260.584 12.296C270.067 21.73 281.624 21.73 291.108 12.296C298.03 5.406 306.965 0 318.461 0C341.758 0 354.108 21.942 360.939 33.867H360.97Z" fill="var(--fill-0, #3DDC97)"/>
</g>
</svg>
