<svg xmlns="http://www.w3.org/2000/svg" viewBox="0 0 922 18" fill="none" width="100%" preserveAspectRatio="xMidYMid meet">
  <path d="M0 9 C11.5 0,23 0,34.5 9 C46 18,57.5 18,69 9 C80.5 0,92 0,103.5 9 C115 18,126.5 18,138 9 C149.5 0,161 0,172.5 9 C184 18,195.5 18,207 9 C218.5 0,230 0,241.5 9 C253 18,264.5 18,276 9 C287.5 0,299 0,310.5 9 C322 18,333.5 18,345 9 C356.5 0,368 0,379.5 9 C391 18,402.5 18,414 9 C425.5 0,437 0,448.5 9 C460 18,471.5 18,483 9 C494.5 0,506 0,517.5 9 C529 18,540.5 18,552 9 C563.5 0,575 0,586.5 9 C598 18,609.5 18,621 9 C632.5 0,644 0,655.5 9 C667 18,678.5 18,690 9 C701.5 0,713 0,724.5 9 C736 18,747.5 18,759 9 C770.5 0,782 0,793.5 9 C805 18,816.5 18,828 9 C839.5 0,851 0,862.5 9 C874 18,885.5 18,897 9 L922 9" stroke="#D604C1" stroke-width="2.5" stroke-linecap="round" fill="none"/>
</svg>
