<svg width="425" height="422" viewBox="0 0 425 422" fill="none" xmlns="http://www.w3.org/2000/svg">
<path d="M356.406 289.198L356.301 289.306V289.414C358.982 331.61 331.959 369.753 292.107 380.181L292.002 380.235C270.025 416.055 226.336 430.643 188.061 414.921C149.786 430.643 106.096 416.055 84.1201 380.235L84.0149 380.181C44.163 369.753 17.1395 331.61 19.8208 289.414V289.306L19.7156 289.198C-6.57188 256.674 -6.57188 209.561 19.7156 177.091L19.8208 176.983V176.875C17.1395 134.679 44.163 96.5355 84.0149 86.1082L84.1201 86.0542C106.096 50.2338 149.786 35.6463 188.061 51.3684C226.336 35.6463 270.025 50.2338 292.002 86.0542L292.107 86.1082C331.959 96.5355 358.982 134.679 356.301 176.875V176.983L356.406 177.091C382.694 209.561 382.694 256.674 356.406 289.198Z" fill="#3DDC97"/>
<path d="M166.969 283.379C165.101 283.379 163.565 284.899 163.798 286.752C164.543 292.683 167.239 298.235 171.51 302.507C176.583 307.579 183.463 310.429 190.637 310.429C197.811 310.429 204.691 307.579 209.764 302.507C214.036 298.235 216.731 292.683 217.476 286.752C217.709 284.899 216.173 283.379 214.306 283.379C212.438 283.379 210.953 284.904 210.643 286.745C209.948 290.877 207.984 294.723 204.983 297.725C201.178 301.529 196.018 303.667 190.637 303.667C185.257 303.667 180.096 301.529 176.292 297.725C173.29 294.723 171.326 290.877 170.631 286.745C170.321 284.904 168.836 283.379 166.969 283.379Z" fill="#400039"/>
<circle cx="118.504" cy="226.704" r="61.8283" fill="white"/>
<circle cx="118.504" cy="226.704" r="34.7784" fill="#400039"/>
<circle cx="262.77" cy="226.704" r="61.8283" fill="white"/>
<circle cx="262.77" cy="226.704" r="34.7784" fill="#400039"/>
<path d="M424.961 43.6237L425 136.537C410.192 136.537 398.683 129.574 389.767 120.699C377.551 108.547 362.664 108.547 350.449 120.699C341.532 129.574 330.024 136.537 315.216 136.537C300.407 136.537 288.899 129.574 279.982 120.699C267.767 108.547 252.88 108.547 240.664 120.699C231.748 129.574 220.239 136.537 205.431 136.537C175.501 136.537 159.436 108.684 150.637 93.3233H150.676L150.637 0C165.445 0 176.954 6.96341 185.87 15.8383C198.086 27.9902 212.973 27.9902 225.188 15.8383C234.105 6.96341 245.613 0 260.422 0C275.23 0 286.738 6.96341 295.655 15.8383C307.87 27.9902 322.757 27.9902 334.973 15.8383C343.889 6.96341 355.398 0 370.206 0C400.215 0 416.123 28.2632 424.921 43.6237H424.961Z" fill="#FF4522"/>
</svg>
